HIERARCHY
ROOT hip
{
  OFFSET 0.00112043 5.09927 -9.65472
  CHANNELS 6 Xposition Yposition Zposition Zrotation Xrotation Yrotation
  JOINT abdomen
  {
    OFFSET 0 -1.186 -1.5018
    CHANNELS 3 Zrotation Xrotation Yrotation
    JOINT abdomen2
    {
      OFFSET 0 9.964 0.2134
      CHANNELS 3 Zrotation Xrotation Yrotation
      JOINT chest
      {
        OFFSET 0 13.134 -3.2573
        CHANNELS 3 Zrotation Xrotation Yrotation
        JOINT neck
        {
          OFFSET 0 20.686 -1.6905
          CHANNELS 3 Zrotation Xrotation Yrotation
          JOINT head
          {
            OFFSET 0 7.238 -0.1237
            CHANNELS 3 Zrotation Xrotation Yrotation
            End Site
            {
              OFFSET 0 0 0
            }
          }
        }
        JOINT lCollar
        {
          OFFSET 1.7069 20.075 5.0056
          CHANNELS 3 Zrotation Xrotation Yrotation
          JOINT lShldr
          {
            OFFSET 13.6458 -0.047 -4.849
            CHANNELS 3 Zrotation Xrotation Yrotation
            JOINT lForeArm
            {
              OFFSET 28.3255 -0.9759 2.2888
              CHANNELS 3 Zrotation Xrotation Yrotation
              JOINT lHand
              {
                OFFSET 22.1583 -0.53 10.8316
                CHANNELS 3 Zrotation Xrotation Yrotation
                JOINT lThumb1
                {
                  OFFSET 0.786 0.112 2.5817
                  CHANNELS 3 Zrotation Xrotation Yrotation
                  JOINT lThumb2
                  {
                    OFFSET 0.3601 -0.878 4.2331
                    CHANNELS 3 Zrotation Xrotation Yrotation
                    JOINT lThumb2_End
                    {
                      OFFSET 1.8127 -1.216 2.2227
                      CHANNELS 3 Zrotation Xrotation Yrotation
                      End Site
                      {
                        OFFSET 0.0181 -0.0122 0.0222
                      }
                    }
                  }
                }
                JOINT lCarpal1
                {
                  OFFSET 0.9571 1.114 1.7695
                  CHANNELS 3 Zrotation Xrotation Yrotation
                  JOINT lIndex1
                  {
                    OFFSET 4.1246 0.487 4.1451
                    CHANNELS 3 Zrotation Xrotation Yrotation
                    JOINT lIndex2
                    {
                      OFFSET 3.4052 -1.454 2.7682
                      CHANNELS 3 Zrotation Xrotation Yrotation
                      JOINT lIndex2_End
                      {
                        OFFSET 1.4531 -1.795 1.2713
                        CHANNELS 3 Zrotation Xrotation Yrotation
                        End Site
                        {
                          OFFSET 0.0145 -0.0179 0.0127
                        }
                      }
                    }
                  }
                  JOINT lMid1
                  {
                    OFFSET 5.6954 0.21 2.1184
                    CHANNELS 3 Zrotation Xrotation Yrotation
                    JOINT lMid2
                    {
                      OFFSET 3.9766 -1.54 2.3863
                      CHANNELS 3 Zrotation Xrotation Yrotation
                      JOINT lMid2_End
                      {
                        OFFSET 1.4042 -1.926 1.125
                        CHANNELS 3 Zrotation Xrotation Yrotation
                        End Site
                        {
                          OFFSET 0.014 -0.0193 0.0113
                        }
                      }
                    }
                  }
                }
                JOINT lCarpal2
                {
                  OFFSET 2.0956 0.66 -0.3894
                  CHANNELS 3 Zrotation Xrotation Yrotation
                  JOINT lRing1
                  {
                    OFFSET 5.0395 -0.09 2.4971
                    CHANNELS 3 Zrotation Xrotation Yrotation
                    JOINT lRing2
                    {
                      OFFSET 3.7921 -1.552 1.4806
                      CHANNELS 3 Zrotation Xrotation Yrotation
                      JOINT lRing2_End
                      {
                        OFFSET 1.4655 -1.808 0.9609
                        CHANNELS 3 Zrotation Xrotation Yrotation
                        End Site
                        {
                          OFFSET 0.0147 -0.0181 0.0096
                        }
                      }
                    }
                  }
                  JOINT lPinky1
                  {
                    OFFSET 4.9141 -1.269 0.3591
                    CHANNELS 3 Zrotation Xrotation Yrotation
                    JOINT lPinky2
                    {
                      OFFSET 3.1477 -1.685 0.8462
                      CHANNELS 3 Zrotation Xrotation Yrotation
                      JOINT lPinky2_End
                      {
                        OFFSET 0.8055 -1.585 0.7955
                        CHANNELS 3 Zrotation Xrotation Yrotation
                        End Site
                        {
                          OFFSET 0.0081 -0.0158 0.008
                        }
                      }
                    }
                  }
                }
              }
            }
          }
        }
        JOINT rCollar
        {
          OFFSET -1.7069 20.075 5.0056
          CHANNELS 3 Zrotation Xrotation Yrotation
          JOINT rShldr
          {
            OFFSET -13.6458 -0.047 -4.849
            CHANNELS 3 Zrotation Xrotation Yrotation
            JOINT rForeArm
            {
              OFFSET -28.3255 -0.9759 2.2888
              CHANNELS 3 Zrotation Xrotation Yrotation
              JOINT rHand
              {
                OFFSET -22.1583 -0.53 10.8316
                CHANNELS 3 Zrotation Xrotation Yrotation
                JOINT rThumb1
                {
                  OFFSET -0.786 0.112 2.5817
                  CHANNELS 3 Zrotation Xrotation Yrotation
                  JOINT rThumb2
                  {
                    OFFSET -0.3601 -0.878 4.2331
                    CHANNELS 3 Zrotation Xrotation Yrotation
                    JOINT rThumb2_End
                    {
                      OFFSET -1.8127 -1.216 2.2227
                      CHANNELS 3 Zrotation Xrotation Yrotation
                      End Site
                      {
                        OFFSET -0.0181 -0.0122 0.0222
                      }
                    }
                  }
                }
                JOINT rCarpal1
                {
                  OFFSET -0.9571 1.114 1.7695
                  CHANNELS 3 Zrotation Xrotation Yrotation
                  JOINT rIndex1
                  {
                    OFFSET -4.1246 0.487 4.1451
                    CHANNELS 3 Zrotation Xrotation Yrotation
                    JOINT rIndex2
                    {
                      OFFSET -3.4052 -1.454 2.7682
                      CHANNELS 3 Zrotation Xrotation Yrotation
                      JOINT rIndex2_End
                      {
                        OFFSET -1.4531 -1.795 1.2713
                        CHANNELS 3 Zrotation Xrotation Yrotation
                        End Site
                        {
                          OFFSET -0.0145 -0.018 0.0127
                        }
                      }
                    }
                  }
                  JOINT rMid1
                  {
                    OFFSET -5.6954 0.21 2.1184
                    CHANNELS 3 Zrotation Xrotation Yrotation
                    JOINT rMid2
                    {
                      OFFSET -3.9766 -1.54 2.3863
                      CHANNELS 3 Zrotation Xrotation Yrotation
                      JOINT rMid2_End
                      {
                        OFFSET -1.4042 -1.926 1.125
                        CHANNELS 3 Zrotation Xrotation Yrotation
                        End Site
                        {
                          OFFSET -0.014 -0.0193 0.0113
                        }
                      }
                    }
                  }
                }
                JOINT rCarpal2
                {
                  OFFSET -2.0956 0.66 -0.3894
                  CHANNELS 3 Zrotation Xrotation Yrotation
                  JOINT rRing1
                  {
                    OFFSET -5.0395 -0.09 2.4971
                    CHANNELS 3 Zrotation Xrotation Yrotation
                    JOINT rRing2
                    {
                      OFFSET -3.7921 -1.552 1.4806
                      CHANNELS 3 Zrotation Xrotation Yrotation
                      JOINT rRing2_End
                      {
                        OFFSET -1.4655 -1.808 0.9609
                        CHANNELS 3 Zrotation Xrotation Yrotation
                        End Site
                        {
                          OFFSET -0.0147 -0.0181 0.0096
                        }
                      }
                    }
                  }
                  JOINT rPinky1
                  {
                    OFFSET -4.9141 -1.269 0.3592
                    CHANNELS 3 Zrotation Xrotation Yrotation
                    JOINT rPinky2
                    {
                      OFFSET -3.1477 -1.685 0.8462
                      CHANNELS 3 Zrotation Xrotation Yrotation
                      JOINT rPinky2_End
                      {
                        OFFSET -0.8055 -1.585 0.7955
                        CHANNELS 3 Zrotation Xrotation Yrotation
                        End Site
                        {
                          OFFSET -0.0081 -0.0158 0.008
                        }
                      }
                    }
                  }
                }
              }
            }
          }
        }
      }
    }
  }
  JOINT lThigh
  {
    OFFSET 8.367 -8.2066 0.5982
    CHANNELS 3 Zrotation Xrotation Yrotation
    JOINT lShin
    {
      OFFSET 2.1923 -43.463 -0.4932
      CHANNELS 3 Zrotation Xrotation Yrotation
      JOINT lFoot
      {
        OFFSET 0.7333 -45.8593 -2.6451
        CHANNELS 3 Zrotation Xrotation Yrotation
        End Site
        {
          OFFSET 2.6618 -4.2699 12.3931
        }
      }
    }
  }
  JOINT rThigh
  {
    OFFSET -8.367 -8.2066 0.5982
    CHANNELS 3 Zrotation Xrotation Yrotation
    JOINT rShin
    {
      OFFSET -2.1923 -43.463 -0.4931
      CHANNELS 3 Zrotation Xrotation Yrotation
      JOINT rFoot
      {
        OFFSET -0.7333 -45.8593 -2.6451
        CHANNELS 3 Zrotation Xrotation Yrotation
        End Site
        {
          OFFSET -2.6618 -4.2699 12.3931
        }
      }
    }
  }
}
MOTION
Frames:	4
Frame Time:	0.0333333
-80.6735 3.93278 -8.6234 -180 -85.9956 -180 -0.416724 2.68033 -0.165169 -0.827061 5.36177 -0.311304 -0.827062 5.36176 -0.311305 1.69544e-006 28.9971 6.70575e-006 5.01387 29.5919 -2.50963 18.2993 3.80138 1.35699 39.9792 -2.53097 9.07483 -1.05883 8.88135 -94.3759 -55.4947 -32.1474 -7.61697 6.36111e-015 1.59028e-014 6.36111e-015 1.59028e-014 1.90833e-014 6.36111e-015 9.54166e-015 1.27222e-014 3.18055e-015 -3.18055e-015 3.18055e-015 3.18055e-015 -9.54166e-015 -6.36111e-015 6.36111e-015 9.54166e-015 1.59028e-014 -0 9.54166e-015 1.59028e-014 -0 -9.54166e-015 -6.36111e-015 6.36111e-015 9.54166e-015 1.59028e-014 -0 9.54166e-015 1.59028e-014 -0 -3.18055e-015 3.18055e-015 3.18055e-015 -9.54166e-015 -6.36111e-015 6.36111e-015 9.54166e-015 1.59028e-014 -0 9.54166e-015 1.59028e-014 -0 -9.54166e-015 -6.36111e-015 6.36111e-015 9.54166e-015 1.59028e-014 -0 9.54166e-015 1.59028e-014 -0 -20.1916 3.20659 0.384996 -35.8675 -1.90933 -4.91856 -0.756554 10.094 78.1082 57.9014 -25.3175 14.9544 3.18055e-015 -3.18055e-015 3.18055e-015 -3.18055e-015 0 3.18055e-015 -3.18055e-015 0 3.18055e-015 3.18055e-015 -3.18055e-015 3.18055e-015 3.18055e-015 3.18055e-015 9.54166e-015 3.18055e-015 0 6.36111e-015 6.36111e-015 -6.36111e-015 -0 3.18055e-015 3.18055e-015 9.54166e-015 3.18055e-015 0 6.36111e-015 6.36111e-015 -6.36111e-015 -0 3.18055e-015 -3.18055e-015 3.18055e-015 3.18055e-015 3.18055e-015 9.54166e-015 3.18055e-015 0 6.36111e-015 6.36111e-015 -6.36111e-015 -0 3.18055e-015 3.18055e-015 9.54166e-015 3.18055e-015 0 6.36111e-015 6.36111e-015 -6.36111e-015 -0 13.2039 -49.3073 19.0845 169.09 47.9252 -167.391 14.5045 17.918 14.6386 -14.1145 -37.3427 -9.12921 153.866 70.1763 -161.154 11.5566 19.5751 -4.50326 
-80.6744 3.93239 -8.62487 -180 -85.9956 -180 -0.403117 2.71443 -0.163683 -0.799809 5.42991 -0.308739 -0.799809 5.42994 -0.308739 -6.43242e-006 28.9971 3.92088e-007 4.72949 29.0021 -2.34598 18.5544 3.61512 1.52619 39.6631 -2.4924 8.8961 -0.960963 9.01188 -93.5979 -55.5749 -31.5938 -8.2459 -1.05934e-030 -6.36111e-015 -9.54166e-015 -3.18055e-015 -9.54166e-015 -9.54166e-015 -6.36111e-015 -3.18055e-015 3.18055e-015 3.18055e-015 -3.18055e-015 -9.54166e-015 1.05934e-030 -6.36111e-015 9.54166e-015 -3.18055e-015 0 3.18055e-015 -6.36111e-015 -6.36111e-015 -6.36111e-015 1.05934e-030 -6.36111e-015 9.54166e-015 -3.18055e-015 0 3.18055e-015 -6.36111e-015 -6.36111e-015 -6.36111e-015 3.18055e-015 -3.18055e-015 -9.54166e-015 1.05934e-030 -6.36111e-015 9.54166e-015 -3.18055e-015 0 3.18055e-015 -6.36111e-015 -6.36111e-015 -6.36111e-015 1.05934e-030 -6.36111e-015 9.54166e-015 -3.18055e-015 0 3.18055e-015 -6.36111e-015 -6.36111e-015 -6.36111e-015 -20.3482 3.05132 0.122376 -35.7533 -1.89458 -4.91824 -0.756538 10.094 78.1082 57.8017 -25.1225 15.1296 -6.36111e-015 -6.36111e-015 1.27222e-014 2.85016e-006 -1.14294e-007 3.65244e-007 -6.4637e-007 1.43665e-006 -3.37262e-006 -3.18055e-015 -9.54166e-015 9.54166e-015 -9.54166e-015 -3.18055e-015 6.36111e-015 2.85016e-006 -1.14294e-007 3.65244e-007 -6.4637e-007 1.43665e-006 -3.37262e-006 -9.54166e-015 -3.18055e-015 6.36111e-015 2.85016e-006 -1.14294e-007 3.65244e-007 -6.4637e-007 1.43665e-006 -3.37262e-006 -3.18055e-015 -9.54166e-015 9.54166e-015 -9.54166e-015 -3.18055e-015 6.36111e-015 2.85016e-006 -1.14294e-007 3.65244e-007 -6.4637e-007 1.43665e-006 -3.37262e-006 -9.54166e-015 -3.18055e-015 6.36111e-015 2.85016e-006 -1.14294e-007 3.65244e-007 -6.4637e-007 1.43665e-006 -3.37262e-006 13.7351 -49.304 19.5509 169.09 47.9274 -167.399 14.8867 17.9319 14.4019 -14.7207 -37.2211 -9.79265 153.863 70.1773 -161.144 10.9672 19.5973 -4.09644 
-80.6751 3.93207 -8.62617 -180 -85.9956 -180 -0.390879 2.7452 -0.162314 -0.775299 5.49138 -0.306379 -0.775299 5.49142 -0.306379 1.3835e-005 28.9968 7.62135e-006 4.47639 28.4704 -2.20242 18.7845 3.44798 1.67933 39.3786 -2.45675 8.73542 -0.873824 9.13246 -92.8968 -55.6411 -31.0945 -8.80857 9.54166e-015 0 1.27222e-014 -3.70768e-030 9.54166e-015 2.22639e-014 6.36111e-015 6.36111e-015 9.54166e-015 6.36111e-015 -3.18055e-015 3.18055e-015 -0 -1.27222e-014 -0 6.36111e-015 3.18055e-015 1.90833e-014 3.18055e-015 -3.18055e-015 6.36111e-015 -0 -1.27222e-014 -0 6.36111e-015 3.18055e-015 1.90833e-014 3.18055e-015 -3.18055e-015 6.36111e-015 6.36111e-015 -3.18055e-015 3.18055e-015 -0 -1.27222e-014 -0 6.36111e-015 3.18055e-015 1.90833e-014 3.18055e-015 -3.18055e-015 6.36111e-015 -0 -1.27222e-014 -0 6.36111e-015 3.18055e-015 1.90833e-014 3.18055e-015 -3.18055e-015 6.36111e-015 -20.4896 2.91205 -0.114441 -35.6506 -1.88131 -4.91796 -0.756545 10.094 78.1082 57.7117 -24.9472 15.2874 -2.58022e-006 -2.17714e-006 5.16727e-006 -4.26127e-006 -1.73784e-006 6.21205e-007 -1.49978e-006 6.30859e-007 4.87091e-007 -3.18055e-015 0 3.18055e-015 -2.58022e-006 -2.17714e-006 5.16727e-006 -4.26127e-006 -1.73784e-006 6.21205e-007 -1.49978e-006 6.30859e-007 4.87091e-007 -2.58022e-006 -2.17714e-006 5.16727e-006 -4.26127e-006 -1.73784e-006 6.21205e-007 -1.49978e-006 6.30859e-007 4.87091e-007 -3.18055e-015 0 3.18055e-015 -2.58022e-006 -2.17714e-006 5.16727e-006 -4.26127e-006 -1.73784e-006 6.21205e-007 -1.49978e-006 6.30859e-007 4.87091e-007 -2.58022e-006 -2.17714e-006 5.16727e-006 -4.26127e-006 -1.73784e-006 6.21205e-007 -1.49978e-006 6.30859e-007 4.87091e-007 14.2135 -49.2982 19.9709 169.089 47.9295 -167.405 15.2308 17.943 14.1888 -15.2646 -37.106 -10.3878 153.86 70.1788 -161.134 10.4363 19.6138 -3.72996 
-80.6759 3.93176 -8.62748 -180 -85.9956 -180 -0.378639 2.77591 -0.160912 -0.750784 5.55281 -0.303965 -0.750784 5.55281 -0.303965 -9.04626e-008 28.997 -8.98724e-007 4.22595 27.9379 -2.06218 19.015 3.28168 1.83303 39.0942 -2.42033 8.57492 -0.788073 9.25419 -92.1952 -55.7012 -30.5943 -9.36802 -3.53113e-031 6.36111e-015 3.18055e-015 9.54166e-015 -3.18055e-015 -0 6.36111e-015 0 -3.18055e-015 -7.06225e-031 6.36111e-015 6.36111e-015 1.27222e-014 -6.36111e-015 1.27222e-014 9.54166e-015 -3.18055e-015 -9.54166e-015 3.18055e-015 3.18055e-015 -9.54166e-015 1.27222e-014 -6.36111e-015 1.27222e-014 9.54166e-015 -3.18055e-015 -9.54166e-015 3.18055e-015 3.18055e-015 -9.54166e-015 -7.06225e-031 6.36111e-015 6.36111e-015 1.27222e-014 -6.36111e-015 1.27222e-014 9.54166e-015 -3.18055e-015 -9.54166e-015 3.18055e-015 3.18055e-015 -9.54166e-015 1.27222e-014 -6.36111e-015 1.27222e-014 9.54166e-015 -3.18055e-015 -9.54166e-015 3.18055e-015 3.18055e-015 -9.54166e-015 -20.6317 2.77358 -0.351533 -35.5478 -1.86805 -4.9177 -0.756532 10.094 78.1082 57.6212 -24.7721 15.4453 1.27222e-014 1.27222e-014 -0 6.36111e-015 2.22639e-014 3.18055e-015 3.18055e-015 1.59028e-014 9.54166e-015 0 0 -0 9.54166e-015 1.59028e-014 9.54166e-015 -3.18055e-015 2.22639e-014 6.36111e-015 -3.17801e-030 1.90833e-014 9.54166e-015 9.54166e-015 1.59028e-014 9.54166e-015 -3.18055e-015 2.22639e-014 6.36111e-015 -3.17801e-030 1.90833e-014 9.54166e-015 0 0 -0 9.54166e-015 1.59028e-014 9.54166e-015 -3.18055e-015 2.22639e-014 6.36111e-015 -3.17801e-030 1.90833e-014 9.54166e-015 9.54166e-015 1.59028e-014 9.54166e-015 -3.18055e-015 2.22639e-014 6.36111e-015 -3.17801e-030 1.90833e-014 9.54166e-015 14.6898 -49.2919 20.3893 169.091 47.9306 -167.413 15.575 17.9529 13.9755 -15.806 -36.9869 -10.9807 153.858 70.1797 -161.125 9.90505 19.627 -3.36319 
